<?xml version="1.0" encoding="UTF-8"?>
<svg xmlns="http://www.w3.org/2000/svg" xmlns:xlink="http://www.w3.org/1999/xlink" width="3000" height="3000" viewBox="0 0 3000 3000">
<path fill-rule="nonzero" fill="rgb(23.094177%, 60.351562%, 74.804688%)" fill-opacity="1" d="M 366.421875 1678.199219 L 750.71875 1462.410156 C 1128.238281 1570.019531 1385.339844 1857.808594 1500 2152.441406 C 1614.660156 1857.808594 1871.761719 1570.050781 2249.28125 1462.410156 L 2633.578125 1678.199219 C 1844.761719 1903.140625 1500 2425.980469 1500 2425.980469 C 1500 2425.980469 1155.238281 1903.140625 366.421875 1678.199219 Z M 1812.300781 553.410156 C 1824.179688 575.191406 1844.28125 589.648438 1866.660156 595.050781 C 1874.21875 573.328125 1872.929688 548.609375 1861.019531 526.828125 C 1849.140625 505.050781 1829.039062 490.589844 1806.660156 485.191406 C 1799.101562 506.910156 1800.390625 531.628906 1812.300781 553.410156 Z M 1792.621094 620.398438 C 1814.398438 608.519531 1839.121094 607.199219 1860.839844 614.761719 C 1855.441406 637.140625 1841.011719 657.210938 1819.199219 669.121094 C 1797.421875 681 1772.699219 682.320312 1750.980469 674.761719 C 1756.378906 652.410156 1770.839844 632.308594 1792.621094 620.398438 Z M 1937.640625 595.769531 C 1946.96875 618.78125 1965.300781 635.429688 1986.898438 643.320312 C 1996.890625 622.589844 1998.421875 597.898438 1989.089844 574.890625 C 1979.761719 551.878906 1961.429688 535.230469 1939.828125 527.339844 C 1929.839844 548.070312 1928.308594 572.761719 1937.640625 595.769531 Z M 1910.460938 660.089844 C 1933.46875 650.761719 1958.160156 652.289062 1978.890625 662.28125 C 1971 683.878906 1954.351562 702.210938 1931.339844 711.539062 C 1908.328125 720.871094 1883.640625 719.339844 1862.910156 709.351562 C 1870.800781 687.71875 1887.449219 669.421875 1910.460938 660.089844 Z M 2057.339844 652.140625 C 2064 676.050781 2080.289062 694.679688 2100.871094 705 C 2113.140625 685.558594 2117.488281 661.171875 2110.828125 637.261719 C 2104.171875 613.351562 2087.878906 594.71875 2067.300781 584.398438 C 2055.03125 603.839844 2050.710938 628.230469 2057.339844 652.140625 Z M 2023.019531 712.921875 C 2046.929688 706.261719 2071.289062 710.609375 2090.761719 722.878906 C 2080.441406 743.460938 2061.808594 759.75 2037.898438 766.410156 C 2013.988281 773.070312 1989.628906 768.71875 1970.160156 756.449219 C 1980.480469 735.871094 1999.109375 719.578125 2023.019531 712.921875 Z M 2169.871094 721.769531 C 2173.738281 746.28125 2187.808594 766.648438 2207.070312 779.25 C 2221.5 761.308594 2228.578125 737.609375 2224.710938 713.101562 C 2220.839844 688.589844 2206.769531 668.21875 2187.511719 655.621094 C 2173.050781 673.53125 2165.96875 697.261719 2169.871094 721.769531 Z M 2128.828125 778.261719 C 2153.339844 774.390625 2177.070312 781.46875 2194.980469 795.898438 C 2182.378906 815.160156 2162.011719 829.230469 2137.5 833.101562 C 2112.988281 836.96875 2089.261719 829.890625 2071.351562 815.460938 C 2083.949219 796.199219 2104.320312 782.128906 2128.828125 778.261719 Z M 2273.699219 803.789062 C 2274.75 828.601562 2286.421875 850.410156 2304.121094 865.140625 C 2320.5 848.96875 2330.25 826.230469 2329.171875 801.421875 C 2328.089844 776.609375 2316.449219 754.800781 2298.75 740.070312 C 2282.371094 756.238281 2272.621094 778.980469 2273.699219 803.789062 Z M 2226.480469 855.210938 C 2251.289062 854.160156 2274.03125 863.878906 2290.199219 880.261719 C 2275.5 897.960938 2253.660156 909.601562 2228.851562 910.679688 C 2204.039062 911.761719 2181.300781 902.011719 2165.128906 885.628906 C 2179.859375 867.929688 2201.699219 856.289062 2226.480469 855.210938 Z M 2367.511719 897.089844 C 2365.738281 921.839844 2374.828125 944.878906 2390.730469 961.5 C 2408.851562 947.308594 2421.121094 925.800781 2422.890625 901.050781 C 2424.660156 876.300781 2415.570312 853.261719 2399.671875 836.640625 C 2381.550781 850.828125 2369.28125 872.339844 2367.511719 897.089844 Z M 2314.738281 942.808594 C 2339.488281 944.578125 2361 956.851562 2375.191406 974.96875 C 2358.570312 990.871094 2335.53125 999.960938 2310.78125 998.191406 C 2286.03125 996.421875 2264.519531 984.148438 2250.328125 966.03125 C 2266.949219 950.128906 2289.988281 941.039062 2314.738281 942.808594 Z M 2450.070312 1000.5 C 2445.480469 1024.890625 2451.898438 1048.800781 2465.789062 1067.128906 C 2485.410156 1055.101562 2500.050781 1035.148438 2504.609375 1010.730469 C 2509.199219 986.339844 2502.78125 962.429688 2488.890625 944.101562 C 2469.300781 956.128906 2454.628906 976.109375 2450.070312 1000.5 Z M 2392.441406 1039.890625 C 2416.828125 1044.480469 2436.78125 1059.121094 2448.839844 1078.710938 C 2430.511719 1092.601562 2406.601562 1099.019531 2382.210938 1094.429688 C 2357.820312 1089.839844 2337.871094 1075.199219 2325.808594 1055.609375 C 2344.140625 1041.71875 2368.050781 1035.328125 2392.441406 1039.890625 Z M 2520.300781 1112.609375 C 2512.980469 1136.308594 2516.609375 1160.820312 2528.339844 1180.589844 C 2549.191406 1170.871094 2566.019531 1152.71875 2573.339844 1128.988281 C 2580.660156 1105.289062 2577.03125 1080.78125 2565.300781 1061.011719 C 2544.449219 1070.761719 2527.621094 1088.910156 2520.300781 1112.609375 Z M 2458.558594 1145.191406 C 2482.261719 1152.511719 2500.441406 1169.339844 2510.160156 1190.191406 C 2490.359375 1201.921875 2465.878906 1205.550781 2442.179688 1198.230469 C 2418.480469 1190.910156 2400.300781 1174.078125 2390.578125 1153.230469 C 2410.351562 1141.5 2434.828125 1137.871094 2458.558594 1145.191406 Z M 2577.300781 1232.039062 C 2567.308594 1254.75 2568.148438 1279.5 2577.539062 1300.5 C 2599.351562 1293.210938 2618.160156 1277.101562 2628.121094 1254.390625 C 2638.109375 1231.679688 2637.269531 1206.929688 2627.878906 1185.929688 C 2606.070312 1193.191406 2587.289062 1209.300781 2577.300781 1232.039062 Z M 2512.230469 1257.359375 C 2534.941406 1267.351562 2551.078125 1286.128906 2558.339844 1307.941406 C 2537.339844 1317.328125 2512.589844 1318.171875 2489.878906 1308.179688 C 2467.171875 1298.191406 2451.03125 1279.410156 2443.769531 1257.601562 C 2464.769531 1248.210938 2489.519531 1247.371094 2512.230469 1257.359375 Z M 2620.320312 1357.171875 C 2607.808594 1378.589844 2605.800781 1403.28125 2612.730469 1425.210938 C 2635.230469 1420.46875 2655.75 1406.578125 2668.261719 1385.160156 C 2680.769531 1363.738281 2682.78125 1339.050781 2675.851562 1317.121094 C 2653.320312 1321.859375 2632.828125 1335.71875 2620.320312 1357.171875 Z M 2552.789062 1374.898438 C 2574.210938 1387.410156 2588.101562 1407.898438 2592.839844 1430.429688 C 2570.910156 1437.359375 2546.21875 1435.351562 2524.800781 1422.839844 C 2503.378906 1410.328125 2489.488281 1389.839844 2484.75 1367.308594 C 2506.679688 1360.410156 2531.339844 1362.390625 2552.789062 1374.898438 Z M 2648.789062 1486.378906 C 2633.910156 1506.238281 2629.109375 1530.539062 2633.519531 1553.128906 C 2656.441406 1550.96875 2678.371094 1539.539062 2693.25 1519.648438 C 2708.128906 1499.789062 2712.929688 1475.488281 2708.519531 1452.898438 C 2685.601562 1455.058594 2663.640625 1466.519531 2648.789062 1486.378906 Z M 2579.671875 1496.308594 C 2599.53125 1511.191406 2610.988281 1533.121094 2613.148438 1556.039062 C 2590.558594 1560.421875 2566.289062 1555.621094 2546.398438 1540.769531 C 2526.539062 1525.890625 2515.078125 1503.960938 2512.921875 1481.039062 C 2535.511719 1476.628906 2559.808594 1481.429688 2579.671875 1496.308594 Z M 1187.699219 553.410156 C 1175.820312 575.191406 1155.71875 589.648438 1133.339844 595.050781 C 1125.78125 573.328125 1127.070312 548.609375 1138.980469 526.828125 C 1150.859375 505.050781 1170.960938 490.589844 1193.339844 485.191406 C 1200.898438 506.910156 1199.609375 531.628906 1187.699219 553.410156 Z M 1207.378906 620.398438 C 1185.601562 608.519531 1160.878906 607.199219 1139.160156 614.761719 C 1144.558594 637.140625 1158.988281 657.210938 1180.800781 669.121094 C 1202.578125 681 1227.300781 682.320312 1249.019531 674.761719 C 1243.621094 652.410156 1229.160156 632.308594 1207.378906 620.398438 Z M 1062.359375 595.769531 C 1053.03125 618.78125 1034.699219 635.429688 1013.101562 643.320312 C 1003.109375 622.589844 1001.578125 597.898438 1010.910156 574.890625 C 1020.238281 551.878906 1038.570312 535.230469 1060.171875 527.339844 C 1070.160156 548.070312 1071.691406 572.761719 1062.359375 595.769531 Z M 1089.539062 660.089844 C 1066.53125 650.761719 1041.839844 652.289062 1021.109375 662.28125 C 1029 683.878906 1045.648438 702.210938 1068.660156 711.539062 C 1091.671875 720.871094 1116.359375 719.339844 1137.089844 709.351562 C 1129.199219 687.71875 1112.550781 669.421875 1089.539062 660.089844 Z M 942.660156 652.140625 C 936 676.050781 919.710938 694.679688 899.128906 705 C 886.859375 685.558594 882.511719 661.171875 889.171875 637.261719 C 895.828125 613.351562 912.121094 594.71875 932.699219 584.398438 C 944.96875 603.839844 949.289062 628.230469 942.660156 652.140625 Z M 976.980469 712.921875 C 953.070312 706.261719 928.710938 710.609375 909.238281 722.878906 C 919.558594 743.460938 938.191406 759.75 962.101562 766.410156 C 986.011719 773.070312 1010.371094 768.71875 1029.839844 756.449219 C 1019.519531 735.871094 1000.890625 719.578125 976.980469 712.921875 Z M 830.128906 721.769531 C 826.261719 746.28125 812.191406 766.648438 792.929688 779.25 C 778.5 761.308594 771.421875 737.609375 775.289062 713.101562 C 779.160156 688.589844 793.230469 668.21875 812.488281 655.621094 C 826.949219 673.53125 834.03125 697.261719 830.128906 721.769531 Z M 871.171875 778.261719 C 846.660156 774.390625 822.929688 781.46875 805.019531 795.898438 C 817.621094 815.160156 837.988281 829.230469 862.5 833.101562 C 887.011719 836.96875 910.738281 829.890625 928.648438 815.460938 C 916.050781 796.199219 895.679688 782.128906 871.171875 778.261719 Z M 726.300781 803.789062 C 725.25 828.601562 713.578125 850.410156 695.878906 865.140625 C 679.5 848.96875 669.75 826.230469 670.828125 801.421875 C 671.910156 776.609375 683.550781 754.800781 701.25 740.070312 C 717.628906 756.238281 727.378906 778.980469 726.300781 803.789062 Z M 773.519531 855.210938 C 748.710938 854.160156 725.96875 863.878906 709.800781 880.261719 C 724.5 897.960938 746.339844 909.601562 771.148438 910.679688 C 795.960938 911.730469 818.699219 902.011719 834.871094 885.628906 C 820.140625 867.929688 798.300781 856.289062 773.519531 855.210938 Z M 632.488281 897.089844 C 634.261719 921.839844 625.171875 944.878906 609.269531 961.5 C 591.148438 947.308594 578.878906 925.800781 577.109375 901.050781 C 575.339844 876.300781 584.429688 853.261719 600.328125 836.640625 C 618.449219 850.828125 630.71875 872.339844 632.488281 897.089844 Z M 685.261719 942.808594 C 660.511719 944.578125 639 956.851562 624.808594 974.96875 C 641.429688 990.871094 664.46875 999.960938 689.21875 998.191406 C 713.96875 996.421875 735.480469 984.148438 749.671875 966.03125 C 733.050781 950.128906 710.011719 941.039062 685.261719 942.808594 Z M 549.929688 1000.5 C 554.519531 1024.890625 548.101562 1048.800781 534.210938 1067.128906 C 514.589844 1055.101562 499.949219 1035.148438 495.390625 1010.730469 C 490.800781 986.339844 497.21875 962.429688 511.109375 944.101562 C 530.699219 956.128906 545.371094 976.109375 549.929688 1000.5 Z M 607.558594 1039.890625 C 583.171875 1044.480469 563.21875 1059.121094 551.160156 1078.710938 C 569.488281 1092.601562 593.398438 1099.019531 617.789062 1094.429688 C 642.179688 1089.839844 662.128906 1075.199219 674.191406 1055.609375 C 655.859375 1041.71875 631.949219 1035.328125 607.558594 1039.890625 Z M 479.699219 1112.609375 C 487.019531 1136.308594 483.390625 1160.820312 471.660156 1180.589844 C 450.808594 1170.871094 433.980469 1152.71875 426.660156 1128.988281 C 419.339844 1105.289062 422.96875 1080.78125 434.699219 1061.011719 C 455.550781 1070.761719 472.378906 1088.910156 479.699219 1112.609375 Z M 541.441406 1145.191406 C 517.738281 1152.511719 499.558594 1169.339844 489.839844 1190.191406 C 509.640625 1201.921875 534.121094 1205.550781 557.820312 1198.230469 C 581.519531 1190.910156 599.699219 1174.078125 609.421875 1153.230469 C 589.648438 1141.5 565.171875 1137.871094 541.441406 1145.191406 Z M 422.699219 1232.039062 C 432.691406 1254.75 431.851562 1279.5 422.460938 1300.5 C 400.648438 1293.210938 381.839844 1277.101562 371.878906 1254.390625 C 361.890625 1231.679688 362.730469 1206.929688 372.121094 1185.929688 C 393.929688 1193.191406 412.710938 1209.300781 422.699219 1232.039062 Z M 487.769531 1257.359375 C 465.058594 1267.351562 448.921875 1286.128906 441.660156 1307.941406 C 462.660156 1317.328125 487.410156 1318.171875 510.121094 1308.179688 C 532.828125 1298.191406 548.96875 1279.410156 556.230469 1257.601562 C 535.230469 1248.210938 510.480469 1247.371094 487.769531 1257.359375 Z M 379.679688 1357.171875 C 392.191406 1378.589844 394.199219 1403.28125 387.269531 1425.210938 C 364.769531 1420.46875 344.25 1406.578125 331.738281 1385.160156 C 319.230469 1363.738281 317.21875 1339.050781 324.148438 1317.121094 C 346.679688 1321.859375 367.171875 1335.71875 379.679688 1357.171875 Z M 447.210938 1374.898438 C 425.789062 1387.410156 411.898438 1407.898438 407.160156 1430.429688 C 429.089844 1437.359375 453.78125 1435.351562 475.199219 1422.839844 C 496.621094 1410.328125 510.511719 1389.839844 515.25 1367.308594 C 493.320312 1360.410156 468.660156 1362.390625 447.210938 1374.898438 Z M 351.210938 1486.378906 C 366.089844 1506.238281 370.890625 1530.539062 366.480469 1553.128906 C 343.558594 1550.96875 321.628906 1539.539062 306.75 1519.648438 C 291.871094 1499.789062 287.070312 1475.488281 291.480469 1452.898438 C 314.398438 1455.058594 336.359375 1466.519531 351.210938 1486.378906 Z M 420.328125 1496.308594 C 400.46875 1511.191406 389.011719 1533.121094 386.851562 1556.039062 C 409.441406 1560.421875 433.710938 1555.621094 453.601562 1540.769531 C 473.460938 1525.890625 484.921875 1503.960938 487.078125 1481.039062 C 464.488281 1476.628906 440.191406 1481.429688 420.328125 1496.308594 "/>
<path fill-rule="nonzero" fill="rgb(0.799561%, 15.696716%, 34.910583%)" fill-opacity="1" d="M 2689.679688 1859.011719 C 2247.300781 1985.128906 1845.089844 2252.128906 1557.121094 2610.78125 L 1442.878906 2610.78125 C 1154.910156 2252.128906 752.699219 1985.128906 310.320312 1859.011719 L 342.148438 1747.289062 C 790.589844 1875.148438 1199.761719 2140.648438 1500 2497.441406 C 1800.238281 2140.648438 2209.410156 1875.148438 2657.820312 1747.320312 Z M 1670.671875 987.300781 C 1665.300781 982.410156 1658.070312 980.101562 1650.808594 980.101562 L 1355.339844 979.980469 C 1340.339844 979.980469 1326.871094 990.570312 1324.800781 1005.421875 C 1324.558594 1007.101562 1324.46875 1008.839844 1324.5 1010.609375 C 1324.859375 1028.550781 1340.25 1042.589844 1358.21875 1042.679688 L 1359.539062 1042.679688 L 1279.980469 1645.921875 L 1464.359375 1882.320312 C 1469.429688 1888.800781 1471.289062 1897.140625 1469.761719 1905.238281 C 1469.339844 1907.488281 1469.101562 1909.828125 1469.070312 1912.230469 C 1469.011719 1927.5 1477.710938 1940.339844 1489.738281 1944.78125 L 1492.109375 1420.679688 C 1475.101562 1416.570312 1462.46875 1401.300781 1462.558594 1383.03125 C 1462.648438 1360.199219 1482.511719 1342.109375 1505.851562 1344.808594 C 1523.730469 1346.878906 1538.101562 1361.671875 1539.71875 1379.609375 C 1541.519531 1399.53125 1528.171875 1416.511719 1509.988281 1420.738281 L 1507.621094 1944.839844 C 1519.679688 1940.519531 1528.5 1927.769531 1528.589844 1912.46875 C 1528.589844 1910.070312 1528.378906 1907.730469 1527.988281 1905.480469 C 1526.519531 1897.378906 1528.46875 1889.070312 1533.601562 1882.621094 L 1720.109375 1647.898438 L 1646.371094 1043.96875 L 1647.300781 1043.96875 C 1664.96875 1044.058594 1680.390625 1030.621094 1681.289062 1012.980469 C 1681.769531 1002.78125 1677.570312 993.601562 1670.671875 987.300781 Z M 1461.210938 514.769531 L 1335.660156 514.769531 L 1437.210938 592.351562 L 1398.421875 717.898438 L 1500 640.289062 L 1601.550781 717.871094 L 1562.761719 592.320312 L 1664.308594 514.738281 L 1538.761719 514.738281 L 1500 389.21875 L 1461.210938 514.769531 "/>
</svg>
